<?xml version="1.0" encoding="UTF-8"?>
<svg id="Layer_1" xmlns="http://www.w3.org/2000/svg" version="1.1" viewBox="0 0 302.6416016 114.3764648">
  <!-- Generator: Adobe Illustrator 29.7.1, SVG Export Plug-In . SVG Version: 2.1.1 Build 8)  -->
  <defs>
    <style>
      .st0 {
        fill: #0d1116;
      }

      .st1 {
        fill: #ffff97;
      }

      .st2 {
        fill: #fff;
      }
    </style>
  </defs>
  <rect class="st0" width="302.6416016" height="114.3764648" rx="10" ry="10"/>
  <g>
    <path class="st2" d="M101.6091043,74.5159965c-3.9371948-.3864746-7.3670044-.7004395-9.1060791-5.5554199l-20.8210449-57.8253784c-1.5217896.9179688-4.2511597,2.0289917-5.5554199,2.0289917l-22.9466553,54.1780396c-2.0825806,4.9677124-4.425293,6.3797607-7.5119629,6.8980713V28.3089653c0-11.5215454,2.3430786-12.2219849,12.0529785-12.6327515.845459-.821167.845459-3.7437744,0-4.5651245-6.2316895.1207275-12.753418.2657471-18.0189819.2657471-4.999939,0-11.5216675-.1450195-17.8983765-.2657471-.821228.8213501-.821228,3.7439575,0,4.5651245,9.710022.4107666,12.0770874,1.1112061,12.0770874,12.6327515v55.6031494c0,11.5215454-2.3670654,12.2219849-12.0770874,12.6325684-.821228.8213501-.821228,3.7439575,0,4.5652466,5.4105225-.1208496,13.30896-.265686,18.0432129-.265686h29.5407104c3.7439575,0,16.4973755.265686,16.4973755.265686,1.4008789-6.932312,2.7776489-15.9417725,3.6230469-23.1639404-.1218262-.0588379-.2498779-.0973511-.3735962-.1502075,3.4882202-.0757446,7.7554321-.1396484,10.9532471-.1396484,4.154541,0,7.9949341.0966187,11.5215454.1932373.6038208-.6038208.6038208-2.7293701,0-3.333374ZM56.4164774,47.7289482l10.3139038-26.1831665h.6038208l9.5168457,27.5117188h-17.8984375c-2.222168,0-2.9467163-.3139648-2.5361328-1.3285522ZM76.8510477,74.5159965c-.4581909.4581909-.5669556,1.7894287-.3299561,2.6702881-.520752-.0240479-1.0508423-.0125732-1.602417.083374-2.777771,9.975647-7.8984375,18.1640015-22.6083374,18.1640015h-8.7439575c-5.4105225,0-7.8984375-2.6327515-7.8984375-9.710083v-7.9603271c2.0552979-.0604858,4.295166-.1071167,6.4009399-.1071167,4.1303101,0,9.2027588.0966187,12.9467163.1932373.6038208-.6038208.6038208-2.7293701,0-3.333374-3.8405762-.289856-8.598938-.7004395-6.9807129-4.8549805l5.555542-14.6616821c.5072021-1.3041992,1.1110229-1.7147827,3.5264893-1.7147827h21.352356l5.8453979,17.1011963c1.2318726,3.4298096-2.6086426,3.8403931-7.463623,4.130249Z"/>
    <g>
      <path class="st1" d="M141.2927591,27.1240287c1.7788086-1.7788086,2.7670898-2.5688477,2.7670898-3.0629883,0-1.1860352-1.6801758-2.9648438-3.0634766-2.9648438-4.5454102,0-33.597168,37.550293-33.597168,65.5151367,0,9.9790039,5.1381836,14.4262695,10.5732422,14.4262695,1.9760742,0,3.2607422-1.0869141,3.2607422-2.0751953,0-.6914062-2.8657227-.9882812-2.8657227-10.4746094,0-22.5288086,15.1191406-53.4584961,22.925293-61.3637695Z"/>
      <path class="st1" d="M170.4421732,18.0332084c.9882812,0,1.6806641-.9882812,1.6806641-1.7788086,0-.9882812-4.8427734-4.6445312-28.7548828-4.6445312-33.8935547,0-56.0283203,18.3798828-56.0283203,32.0166016,0,5.9287109,4.2490234,9.8813477,6.3242188,9.8813477.6914062,0,1.0869141-.3950195,1.0869141-.987793,0-11.1665039,17.3916016-35.7714844,60.6728516-35.7714844,9.7822266,0,14.3271484,1.284668,15.0185547,1.284668Z"/>
      <path class="st1" d="M165.6980325,49.1601616c-1.1855469,0-1.7792969.5927734-1.7792969,1.0869141,0,.8891602,3.7558594.6918945,3.7558594,11.0673828,0,10.96875-7.4106445,23.3208008-9.4858398,23.3208008-.4941406,0-.7905273-.3955078-.7905273-.9882812,0-3.65625,3.7539062-7.3125,3.7539062-11.2651367,0-2.2729492-2.0742188-5.6323242-4.9394531-5.6323242-1.1860352,0-2.1743164,1.6796875-5.9291992,8.300293-3.2607422,5.8300781-9.1899414,12.746582-10.0791016,12.746582-.3955078,0-.6918945-.2958984-.6918945-.7900391,0-2.6679688,7.8066406-13.1420898,7.8066406-19.6640625,0-4.3481445-2.7670898-8.4980469-4.7431641-8.4980469-.5927734,0-.8896484.4941406-.8896484,1.5810547,0,9.387207-11.0673828,15.4150391-11.0673828,25.9882812,0,4.5449219,4.5458984,7.5087891,7.8066406,7.5087891,3.65625,0,10.96875-11.7578125,13.6367188-15.6113281,0,0-.5927734,2.4702148-.5927734,4.2490234,0,4.2490234,2.6679687,6.125,5.6323242,6.125,6.3227539,0,19.2680664-14.1293945,19.2680664-26.6787109,0-8.3994141-6.5214844-12.8461914-10.671875-12.8461914Z"/>
      <path class="st1" d="M258.384556,61.8085991c1.1855469,0,2.3710938-1.4824219,2.3710938-2.371582,0-1.3833008-2.5693359-2.2729492-9.8818359-2.371582,1.9765625-4.6445312,3.3603516-8.6958008,3.4589844-11.956543,0-5.5341797-2.7666016-6.6210938-3.4589844-6.6210938-.5927734,0-.8886719.3955078-.9873047,1.284668-.4941406,4.7431641-3.1621094,10.6723633-6.4238281,16.996582-2.7666016-.3955078-3.8535156-.9882812-4.2490234-.9882812-.4941406,0-.7900391.2963867-.7900391.9882812,0,.7905273,1.0869141,2.7666016,2.8652344,4.0512695-2.1063843,3.9584961-4.3172607,7.9960938-6.2741089,11.9331665-4.9695435,6.7627563-13.1668701,15.9315796-19.5149536,15.9315796-1.2851562,0-2.3720703-.9873047-2.3720703-3.9511719,0-4.1503906,1.2851562-6.8183594,1.2851562-6.8183594,0,0,1.9765625,1.0869141,3.1621094,1.0869141,5.2373047,0,12.4501953-7.2133789,12.5498047-13.6367188,0-2.9643555-3.3603516-6.4228516-5.8310547-6.4228516-5.2437134,0-13.3013916,5.3557739-17.0379639,13.2597656-4.9200439,6.8035889-13.3952026,16.4824219-19.9171143,16.4824219-1.2851562,0-2.3720703-.9873047-2.3720703-3.9511719,0-4.1503906,1.2851562-6.8183594,1.2851562-6.8183594,0,0,1.9755859,1.0869141,3.1621094,1.0869141,5.2373047,0,12.4501953-7.2133789,12.5498047-13.6367188,0-2.9643555-3.3603516-6.4228516-5.8300781-6.4228516-7.0166016,0-19.0722656,9.5849609-19.0722656,22.0361328,0,7.8056641,5.8300781,11.5605469,11.9570312,11.5605469,4.7550049,0,11.5042114-6.7224731,16.2302856-12.4335327-.0131226.289917-.0261841.579834-.0261841.8729858,0,7.8056641,5.8300781,11.5605469,11.9570312,11.5605469,3.8364258,0,8.9717407-4.3773804,13.295166-9.0679321-.8938599,2.7855225-1.4387207,5.4121094-1.4387207,7.7827759,0,8.1035156,6.0273438,12.3525391,8.3994141,12.3525391.7900391,0,1.2841797-.4941406,1.2841797-.8896484,0-.7900391-1.5810547-1.6796875-1.5810547-6.4228516,0-10.8691406,6.5224609-23.5175781,11.5615234-34.387207,4.3486328,0,8.8935547-.0986328,9.6845703-.0986328ZM225.9743997,63.6860405c.2958984,0,.4941406.2963867.4941406.6918945-.1982422,2.6679688-8.2021484,10.3754883-10.7714844,10.3754883,4.9414062-8.6958008,9.1904297-11.0673828,10.2773438-11.0673828ZM197.8132669,63.6860405c.2958984,0,.4941406.2963867.4941406.6918945-.1982422,2.6679688-8.2021484,10.3754883-10.7714844,10.3754883,4.9414062-8.6958008,9.1904297-11.0673828,10.2773438-11.0673828Z"/>
      <path class="st1" d="M286.7419779,18.9223686c-2.8662109,0-10.1787109,16.0083008-15.5146484,30.1386719-5.3359375,14.1308594-8.2998047,20.9492187-8.2998047,23.1230469s.9873047,5.8300781,3.7548828,5.8300781c2.7666016,0,5.7314453-6.0273438,11.3632812-21.5415039,5.6328125-15.5141602,13.1425781-28.4589844,13.1425781-30.9296875,0-2.4702148-2.7666016-6.6206055-4.4462891-6.6206055Z"/>
      <path class="st1" d="M262.6306497,84.2397514c-2.4707031,0-4.8417969,2.9643555-4.8417969,5.2363281,0,2.2724609,3.5576172,4.7431641,6.0273438,4.7431641,2.4707031,0,4.3486328-1.4824219,4.3486328-4.1503906,0-2.6669922-2.8662109-5.8291016-5.5341797-5.8291016Z"/>
    </g>
  </g>
</svg>